<svg width="496.8px" height="121.4px" xmlns="http://www.w3.org/2000/svg" viewBox="1.575000000000017 14.308203124999999 496.84999999999997 121.38359375" style="background: rgb(200, 71, 44)" preserveAspectRatio="xMidYMid"><defs><filter id="editing-lego" x="-100%" y="-100%" width="300%" height="300%"><feFlood flood-color="#ffc235" result="f1"></feFlood><feFlood flood-color="#fefefe" result="f2"></feFlood><feMorphology operator="dilate" radius="3" in="SourceAlpha"></feMorphology><feConvolveMatrix order="5,5" divisor="1" result="cm1" kernelMatrix="0 1 1 1 0  1 0 0 0 1  1 0 0 0 1  1 0 0 0 1  0 1 1 1 0"></feConvolveMatrix><feComposite operator="in" in="f1" in2="cm1" result="c1"></feComposite><feMorphology operator="dilate" radius="3"></feMorphology><feConvolveMatrix order="5,5" divisor="1" result="cm2" kernelMatrix="0 1 1 1 0  1 0 0 0 1  1 0 0 0 1  1 0 0 0 1  0 1 1 1 0"></feConvolveMatrix><feComposite operator="in" in="f2" in2="cm2" result="c2"></feComposite><feMerge><feMergeNode in="c2"></feMergeNode><feMergeNode in="c1"></feMergeNode><feMergeNode in="SourceGraphic"></feMergeNode></feMerge></filter></defs><g transform="matrix(1,-0.1,0.1,1,-7.3,26)" filter="url(#editing-lego)"><g transform="matrix(1.3,0,0,1.9,53.5,231.7)"><path d="M -13.8 -62.7 L -27.8 -62.7 L -19.7 -105 L -5.6 -105 L -13.8 -62.7 Z M 41.9 -61.5 L 41.9 -61.5 L 41.9 -61.5 Q 34.2 -61.5 34.2 -67.5 L 34.2 -67.5 L 34.2 -67.5 Q 34.2 -70.1 35.3 -75.2 L 35.3 -75.2 L 35.3 -75.2 Q 36.4 -80.3 36.8 -82.3 L 36.8 -82.3 L 36.8 -82.3 Q 37.7 -87 37.7 -88.5 L 37.7 -88.5 L 37.7 -88.5 Q 37.7 -91.7 35.2 -91.7 L 35.2 -91.7 L 35.2 -91.7 Q 33.6 -91.7 32.1 -89.5 L 32.1 -89.5 L 32.1 -89.5 Q 30.6 -87.3 29.9 -82.9 L 29.9 -82.9 L 25.9 -62.7 L 13.4 -61.5 L 16.9 -78.9 L 16.9 -78.9 Q 17.5 -81.7 18 -85 L 18 -85 L 18 -85 Q 18.5 -88.3 18.5 -88.8 L 18.5 -88.8 L 18.5 -88.8 Q 18.5 -91.7 16.3 -91.7 L 16.3 -91.7 L 16.3 -91.7 Q 14.8 -91.7 13.2 -89.6 L 13.2 -89.6 L 13.2 -89.6 Q 11.6 -87.4 10.7 -82.9 L 10.7 -82.9 L 6.8 -62.7 L -5.8 -61.5 L 0.9 -95.4 L 11.4 -96.7 L 10.3 -90.2 L 10.3 -90.2 Q 12 -93.6 15 -95.2 L 15 -95.2 L 15 -95.2 Q 18.1 -96.7 22.9 -96.7 L 22.9 -96.7 L 22.9 -96.7 Q 25.6 -96.7 27.4 -95.3 L 27.4 -95.3 L 27.4 -95.3 Q 29.2 -94 29.8 -91.8 L 29.8 -91.8 L 29.8 -91.8 Q 30.9 -94 33.7 -95.3 L 33.7 -95.3 L 33.7 -95.3 Q 36.5 -96.7 39.9 -96.7 L 39.9 -96.7 L 39.9 -96.7 Q 43.3 -96.7 45 -95.9 L 45 -95.9 L 45 -95.9 Q 46.7 -95.2 47.7 -94 L 47.7 -94 L 47.7 -94 Q 49.5 -91.7 49.5 -87.6 L 49.5 -87.6 L 49.5 -87.6 Q 49.5 -83.6 47.7 -75.2 L 47.7 -75.2 L 47.7 -75.2 Q 46.8 -71.1 46.8 -69.6 L 46.8 -69.6 L 46.8 -69.6 Q 46.8 -68.1 47.7 -67.2 L 47.7 -67.2 L 47.7 -67.2 Q 48.6 -66.3 49.8 -66.2 L 49.8 -66.2 L 49.8 -66.2 Q 49.2 -64 47 -62.7 L 47 -62.7 L 47 -62.7 Q 44.8 -61.5 41.9 -61.5 Z M 59.3 -89.5 L 59.3 -89.5 L 59.3 -89.5 Q 61.5 -92.6 64.8 -94.6 L 64.8 -94.6 L 64.8 -94.6 Q 68.1 -96.7 72.1 -96.7 L 72.1 -96.7 L 72.1 -96.7 Q 76.1 -96.7 78.1 -95.4 L 78.1 -95.4 L 90.6 -96.7 L 86.3 -72.1 L 86.3 -72.1 Q 84 -59.5 79.3 -54.6 L 79.3 -54.6 L 79.3 -54.6 Q 74.7 -49.9 65.9 -49.9 L 65.9 -49.9 L 65.9 -49.9 Q 59.2 -49.9 55.3 -52 L 55.3 -52 L 55.3 -52 Q 51.5 -54.2 51.5 -57.7 L 51.5 -57.7 L 51.5 -57.7 Q 51.5 -60.3 53.5 -61.8 L 53.5 -61.8 L 53.5 -61.8 Q 55.5 -63.3 58.5 -63.3 L 58.5 -63.3 L 58.5 -63.3 Q 61.2 -63.3 63.3 -62.1 L 63.3 -62.1 L 63.3 -62.1 Q 64.5 -61.5 65.1 -60.6 L 65.1 -60.6 L 65.1 -60.6 Q 63.6 -59.3 63.6 -57.2 L 63.6 -57.2 L 63.6 -57.2 Q 63.6 -54.4 66.2 -54.4 L 66.2 -54.4 L 66.2 -54.4 Q 70.4 -54.4 72.9 -64.5 L 72.9 -64.5 L 72.9 -64.5 Q 73.6 -67.3 74.2 -70 L 74.2 -70 L 74.2 -70 Q 71.3 -66.5 64.8 -66.5 L 64.8 -66.5 L 64.8 -66.5 Q 60.2 -66.5 57.6 -68.7 L 57.6 -68.7 L 57.6 -68.7 Q 55 -70.9 55 -76 L 55 -76 L 55 -76 Q 55 -79.2 56 -82.8 L 56 -82.8 L 56 -82.8 Q 57.1 -86.4 59.3 -89.5 Z M 67.6 -75.8 L 67.6 -75.8 L 67.6 -75.8 Q 67.6 -71.4 69.9 -71.4 L 69.9 -71.4 L 69.9 -71.4 Q 71.4 -71.4 72.9 -73.1 L 72.9 -73.1 L 72.9 -73.1 Q 74 -74.4 74.5 -76.4 L 74.5 -76.4 L 77.7 -92.9 L 77.7 -92.9 Q 77.4 -92.9 77.1 -93.1 L 77.1 -93.1 L 77.1 -93.1 Q 76.5 -93.3 75.6 -93.3 L 75.6 -93.3 L 75.6 -93.3 Q 71.7 -93.3 69.4 -86.9 L 69.4 -86.9 L 69.4 -86.9 Q 67.6 -81.9 67.6 -75.8 Z M 119 -83.3 L 132 -84.5 L 132 -84.5 Q 127.3 -74.4 127.3 -62.7 L 127.3 -62.7 L 127.3 -62.7 Q 125.6 -61.5 123.1 -61.5 L 123.1 -61.5 L 123.1 -61.5 Q 120.6 -61.5 119 -62.6 L 119 -62.6 L 119 -62.6 Q 117.4 -63.8 117 -65 L 117 -65 L 117 -65 Q 115.4 -63.4 112.8 -62.4 L 112.8 -62.4 L 112.8 -62.4 Q 110.3 -61.5 107.5 -61.5 L 107.5 -61.5 L 107.5 -61.5 Q 104.8 -61.5 102.4 -62.4 L 102.4 -62.4 L 102.4 -62.4 Q 100 -63.2 98.1 -65.2 L 98.1 -65.2 L 98.1 -65.2 Q 94 -69.6 94 -77.8 L 94 -77.8 L 94 -77.8 Q 94 -90.6 100.8 -98.3 L 100.8 -98.3 L 100.8 -98.3 Q 107.9 -106.3 120.4 -106.3 L 120.4 -106.3 L 120.4 -106.3 Q 129 -106.3 132.1 -101.8 L 132.1 -101.8 L 132.1 -101.8 Q 133 -100.4 133 -98.7 L 133 -98.7 L 133 -98.7 Q 133 -97 132.3 -95.5 L 132.3 -95.5 L 132.3 -95.5 Q 131.6 -94.1 130.4 -92.9 L 130.4 -92.9 L 130.4 -92.9 Q 127.7 -90.4 124.3 -90.4 L 124.3 -90.4 L 124.3 -90.4 Q 122.9 -90.4 121.6 -90.8 L 121.6 -90.8 L 121.6 -90.8 Q 121.9 -92.8 121.9 -95 L 121.9 -95 L 121.9 -95 Q 121.9 -97.2 121.7 -98.3 L 121.7 -98.3 L 121.7 -98.3 Q 121.6 -99.3 121.2 -100.1 L 121.2 -100.1 L 121.2 -100.1 Q 120.4 -101.8 118.5 -101.8 L 118.5 -101.8 L 118.5 -101.8 Q 116.7 -101.8 114.7 -99.9 L 114.7 -99.9 L 114.7 -99.9 Q 112.7 -97.9 111.1 -94.7 L 111.1 -94.7 L 111.1 -94.7 Q 107.6 -87.6 107.6 -78.9 L 107.6 -78.9 L 107.6 -78.9 Q 107.6 -75 109.1 -72.1 L 109.1 -72.1 L 109.1 -72.1 Q 110.8 -69.1 113.7 -69.1 L 113.7 -69.1 L 113.7 -69.1 Q 114.7 -69.1 115.7 -69.6 L 115.7 -69.6 L 115.7 -69.6 Q 116.6 -70.1 117 -70.5 L 117 -70.5 L 119 -83.3 Z M 137.9 -64.7 L 137.9 -64.7 L 137.9 -64.7 Q 136.4 -66.3 135.7 -68.9 L 135.7 -68.9 L 135.7 -68.9 Q 135 -71.6 135 -75.9 L 135 -75.9 L 135 -75.9 Q 135 -80.1 136.5 -84 L 136.5 -84 L 136.5 -84 Q 138 -88 140.7 -90.8 L 140.7 -90.8 L 140.7 -90.8 Q 146.2 -96.7 155.2 -96.7 L 155.2 -96.7 L 155.2 -96.7 Q 158.5 -96.7 160.9 -95.6 L 160.9 -95.6 L 171.8 -96.7 L 167.1 -71.7 L 167.1 -71.7 Q 166.9 -70.9 166.9 -69.5 L 166.9 -69.5 L 166.9 -69.5 Q 166.9 -68.1 167.8 -67.2 L 167.8 -67.2 L 167.8 -67.2 Q 168.6 -66.3 169.9 -66.2 L 169.9 -66.2 L 169.9 -66.2 Q 169.3 -64 166.9 -62.7 L 166.9 -62.7 L 166.9 -62.7 Q 164.6 -61.5 162 -61.5 L 162 -61.5 L 162 -61.5 Q 159.3 -61.5 157.6 -62.4 L 157.6 -62.4 L 157.6 -62.4 Q 155.8 -63.4 155.3 -65.1 L 155.3 -65.1 L 155.3 -65.1 Q 154.3 -63.5 152.1 -62.5 L 152.1 -62.5 L 152.1 -62.5 Q 149.9 -61.5 147 -61.5 L 147 -61.5 L 147 -61.5 Q 144.1 -61.5 141.7 -62.2 L 141.7 -62.2 L 141.7 -62.2 Q 139.4 -63 137.9 -64.7 Z M 151.4 -90.6 L 151.4 -90.6 L 151.4 -90.6 Q 150.6 -89.5 150 -87.5 L 150 -87.5 L 150 -87.5 Q 149.4 -85.6 148.3 -80.4 L 148.3 -80.4 L 148.3 -80.4 Q 147.2 -75.2 147.2 -71.4 L 147.2 -71.4 L 147.2 -71.4 Q 147.2 -67.7 147.8 -66.6 L 147.8 -66.6 L 147.8 -66.6 Q 148.4 -65.6 149.4 -65.6 L 149.4 -65.6 L 149.4 -65.6 Q 151.5 -65.6 153 -67.5 L 153 -67.5 L 153 -67.5 Q 154.5 -69.5 155.1 -72.9 L 155.1 -72.9 L 158.4 -91.7 L 158.4 -91.7 Q 157.1 -92.8 155.5 -92.8 L 155.5 -92.8 L 155.5 -92.8 Q 154 -92.8 153 -92.3 L 153 -92.3 L 153 -92.3 Q 152.1 -91.8 151.4 -90.6 Z M 190.6 -66.3 L 190.6 -66.3 L 190.6 -66.3 Q 188.6 -61.5 182.3 -61.5 L 182.3 -61.5 L 182.3 -61.5 Q 179.1 -61.5 177 -63.7 L 177 -63.7 L 177 -63.7 Q 175.3 -65.6 175.3 -67.7 L 175.3 -67.7 L 175.3 -67.7 Q 175.3 -72.5 177.6 -83 L 177.6 -83 L 182.3 -107.5 L 195.2 -108.8 L 189 -76.4 L 189 -76.4 Q 188 -71.7 188 -70 L 188 -70 L 188 -70 Q 188 -66.4 190.6 -66.3 Z M 211.3 -66.3 L 211.3 -66.3 L 211.3 -66.3 Q 209.3 -61.5 203 -61.5 L 203 -61.5 L 203 -61.5 Q 199.8 -61.5 197.7 -63.7 L 197.7 -63.7 L 197.7 -63.7 Q 196.1 -65.6 196.1 -67.7 L 196.1 -67.7 L 196.1 -67.7 Q 196.1 -72.5 198.3 -83 L 198.3 -83 L 203 -107.5 L 216 -108.8 L 209.8 -76.4 L 209.8 -76.4 Q 208.7 -71.7 208.7 -70 L 208.7 -70 L 208.7 -70 Q 208.7 -66.4 211.3 -66.3 Z M 242.7 -73.6 L 242.7 -73.6 L 242.7 -73.6 Q 244.3 -72.5 244.3 -70.1 L 244.3 -70.1 L 244.3 -70.1 Q 244.3 -67.7 243.1 -66.1 L 243.1 -66.1 L 243.1 -66.1 Q 241.8 -64.6 239.9 -63.6 L 239.9 -63.6 L 239.9 -63.6 Q 235.8 -61.5 231.3 -61.5 L 231.3 -61.5 L 231.3 -61.5 Q 226.9 -61.5 224.3 -62.4 L 224.3 -62.4 L 224.3 -62.4 Q 221.7 -63.4 220 -65.2 L 220 -65.2 L 220 -65.2 Q 216.6 -68.6 216.6 -74.8 L 216.6 -74.8 L 216.6 -74.8 Q 216.6 -84.4 221.9 -90.3 L 221.9 -90.3 L 221.9 -90.3 Q 227.5 -96.7 237.3 -96.7 L 237.3 -96.7 L 237.3 -96.7 Q 243.4 -96.7 246.4 -94.1 L 246.4 -94.1 L 246.4 -94.1 Q 248.6 -92.2 248.6 -89 L 248.6 -89 L 248.6 -89 Q 248.6 -77.8 229.2 -77.8 L 229.2 -77.8 L 229.2 -77.8 Q 228.9 -76.1 228.9 -74.7 L 228.9 -74.7 L 228.9 -74.7 Q 228.9 -71.8 230.2 -70.6 L 230.2 -70.6 L 230.2 -70.6 Q 231.5 -69.5 234 -69.5 L 234 -69.5 L 234 -69.5 Q 236.4 -69.5 239 -70.6 L 239 -70.6 L 239 -70.6 Q 241.6 -71.8 242.7 -73.6 Z M 229.6 -80.5 L 229.6 -80.5 L 229.6 -80.5 Q 234.2 -80.5 236.8 -83.3 L 236.8 -83.3 L 236.8 -83.3 Q 239.4 -86 239.4 -90.3 L 239.4 -90.3 L 239.4 -90.3 Q 239.4 -91.8 238.9 -92.6 L 238.9 -92.6 L 238.9 -92.6 Q 238.3 -93.4 237.2 -93.4 L 237.2 -93.4 L 237.2 -93.4 Q 236.1 -93.4 235.2 -93 L 235.2 -93 L 235.2 -93 Q 234.3 -92.6 233.3 -91.2 L 233.3 -91.2 L 233.3 -91.2 Q 231 -88 229.6 -80.5 Z M 270.8 -80.7 L 270.8 -80.7 L 270.8 -80.7 Q 273.1 -84.8 273.1 -89 L 273.1 -89 L 273.1 -89 Q 273.1 -91.7 271.2 -91.7 L 271.2 -91.7 L 271.2 -91.7 Q 269.6 -91.7 268 -89.1 L 268 -89.1 L 268 -89.1 Q 266.4 -86.5 265.8 -83.1 L 265.8 -83.1 L 262.5 -62.7 L 249.3 -61.5 L 255.8 -95.4 L 266.4 -96.7 L 265.2 -90.2 L 265.2 -90.2 Q 268.3 -96.7 275.4 -96.7 L 275.4 -96.7 L 275.4 -96.7 Q 279.1 -96.7 281.1 -94.7 L 281.1 -94.7 L 281.1 -94.7 Q 283.1 -92.8 283.1 -88.9 L 283.1 -88.9 L 283.1 -88.9 Q 283.1 -84.9 280.5 -82.4 L 280.5 -82.4 L 280.5 -82.4 Q 277.9 -80 273.5 -80 L 273.5 -80 L 273.5 -80 Q 271.6 -80 270.8 -80.7 Z M 304.5 -70 L 304.5 -70 L 304.5 -70 Q 301.2 -66.5 295.1 -66.5 L 295.1 -66.5 L 295.1 -66.5 Q 287.5 -66.5 285.9 -72.1 L 285.9 -72.1 L 285.9 -72.1 Q 285.4 -73.7 285.4 -75.6 L 285.4 -75.6 L 285.4 -75.6 Q 285.4 -77.5 285.7 -79.4 L 285.7 -79.4 L 288.8 -95.4 L 301.7 -96.7 L 298.2 -78 L 298.2 -78 Q 298.1 -77.2 297.9 -76.3 L 297.9 -76.3 L 297.9 -76.3 Q 297.7 -75.4 297.7 -74.5 L 297.7 -74.5 L 297.7 -74.5 Q 297.7 -73.6 298 -72.9 L 298 -72.9 L 298 -72.9 Q 298.4 -72.3 298.8 -72 L 298.8 -72 L 298.8 -72 Q 299.6 -71.4 300.9 -71.4 L 300.9 -71.4 L 300.9 -71.4 Q 302.3 -71.4 303.5 -73.1 L 303.5 -73.1 L 303.5 -73.1 Q 304.7 -74.8 305.3 -77.6 L 305.3 -77.6 L 308.8 -95.4 L 321.4 -96.7 L 316.6 -71.5 L 316.6 -71.5 Q 314.2 -59.2 309.4 -54.4 L 309.4 -54.4 L 309.4 -54.4 Q 306.9 -51.9 303.6 -50.9 L 303.6 -50.9 L 303.6 -50.9 Q 300.4 -49.9 296.2 -49.9 L 296.2 -49.9 L 296.2 -49.9 Q 289.5 -49.9 285.7 -52 L 285.7 -52 L 285.7 -52 Q 281.8 -54.1 281.8 -57.6 L 281.8 -57.6 L 281.8 -57.6 Q 281.8 -60.2 283.8 -61.7 L 283.8 -61.7 L 283.8 -61.7 Q 285.8 -63.2 288.9 -63.2 L 288.9 -63.2 L 288.9 -63.2 Q 291.6 -63.2 293.6 -62.1 L 293.6 -62.1 L 293.6 -62.1 Q 294.8 -61.4 295.4 -60.5 L 295.4 -60.5 L 295.4 -60.5 Q 293.9 -59.2 293.9 -57.1 L 293.9 -57.1 L 293.9 -57.1 Q 293.9 -54.3 296.5 -54.3 L 296.5 -54.3 L 296.5 -54.3 Q 300.7 -54.3 303.2 -64 L 303.2 -64 L 303.2 -64 Q 303.9 -66.9 304.5 -70 Z" fill="#473b34"></path></g></g><style>text {
  font-size: 64px;
  font-family: Arial Black;
  dominant-baseline: central;
  text-anchor: middle;
}</style></svg>